<?xml version="1.0" encoding="UTF-8"?><svg id="uuid-221fdc9d-bedb-4341-bb97-f028f1fdf969" xmlns="http://www.w3.org/2000/svg" viewBox="0 0 1000 1000"><path d="M442,606.005h62v16c-50.672,67.344-115,127.844-193,181.5-78,53.672-163.672,97.828-257,132.5l-11-17c55.328-25.344,107.828-54.5,157.5-87.5,49.656-33,95.156-68.828,136.5-107.5,41.328-38.656,76.328-78,105-118Z" style="opacity:.63;"/><path d="M63,178.005h735l48-62c12.656,9.344,23.5,18,32.5,26s18.828,16.172,29.5,24.5c10.656,8.344,20.328,16.5,29,24.5-2.672,10.672-11.672,16-27,16H72l-9-29Z" style="opacity:.63;"/><path d="M194,313.005v-28l59,28h518v30H248v321c0,1.344-2.344,3.344-7,6-4.672,2.672-10.344,5.344-17,8-6.672,2.672-13.672,4-21,4h-9v-369Z" style="opacity:.63;"/><rect x="225" y="452.005" width="542" height="30" style="opacity:.63;"/><rect x="227" y="596.005" width="542" height="30" style="opacity:.63;"/><path d="M470,44.005l90,10c-1.344,6.672-4.5,12.5-9.5,17.5s-13.844,8.5-26.5,10.5v851c0,2.656-2.172,5.828-6.5,9.5-4.344,3.656-9.844,6.828-16.5,9.5-6.672,2.656-13.344,4-20,4h-11V44.005Z" style="opacity:.63;"/><path d="M528,603.005c30.656,41.344,69.828,79.844,117.5,115.5,47.656,35.672,99.828,66.844,156.5,93.5,56.656,26.672,112.328,47.344,167,62l-2,11c-12,1.328-22.672,5.828-32,13.5-9.344,7.656-16,17.828-20,30.5-52.672-19.344-104.5-44.344-155.5-75s-97.844-66.328-140.5-107c-42.672-40.656-78-85.328-106-134l15-10Z" style="opacity:.63;"/><path d="M752,313.005h-10l32-36,75,57c-3.344,4-8.844,7.844-16.5,11.5-7.672,3.672-16.5,6.5-26.5,8.5v303c0,2-2.844,4.5-8.5,7.5-5.672,3-12,5.844-19,8.5-7,2.672-13.5,4-19.5,4h-7v-364Z" style="opacity:.63;"/></svg>